<mxfile host="Electron" modified="2024-03-26T12:54:36.047Z" agent="Mozilla/5.0 (Macintosh; Intel Mac OS X 10_15_7) AppleWebKit/537.36 (KHTML, like Gecko) draw.io/23.0.2 Chrome/120.0.6099.109 Electron/28.1.0 Safari/537.36" etag="fCfdwnYtfPVpUelZqYeH" version="23.0.2" type="device">
  <diagram id="prtHgNgQTEPvFCAcTncT" name="Page-1">
    <mxGraphModel dx="1140" dy="767" grid="1" gridSize="10" guides="1" tooltips="1" connect="1" arrows="1" fold="1" page="1" pageScale="1" pageWidth="1169" pageHeight="827" math="0" shadow="0">
      <root>
        <mxCell id="0" />
        <mxCell id="1" parent="0" />
        <mxCell id="47eiMUq6ami5p8lEIGS--3" style="edgeStyle=orthogonalEdgeStyle;rounded=0;orthogonalLoop=1;jettySize=auto;html=1;exitX=1;exitY=0.5;exitDx=0;exitDy=0;exitPerimeter=0;dashed=1;dashPattern=1 1;" edge="1" parent="1" source="47eiMUq6ami5p8lEIGS--2">
          <mxGeometry relative="1" as="geometry">
            <mxPoint x="170" y="230" as="targetPoint" />
          </mxGeometry>
        </mxCell>
        <mxCell id="47eiMUq6ami5p8lEIGS--2" value="Original data &lt;br&gt;from &lt;br&gt;&lt;div style=&quot;&quot;&gt;&lt;span style=&quot;background-color: initial;&quot;&gt;instrument&lt;/span&gt;&lt;/div&gt;" style="strokeWidth=2;html=1;shape=mxgraph.flowchart.direct_data;whiteSpace=wrap;align=left;dashed=1;dashPattern=1 1;" vertex="1" parent="1">
          <mxGeometry x="40" y="200" width="90" height="60" as="geometry" />
        </mxCell>
        <mxCell id="47eiMUq6ami5p8lEIGS--14" style="edgeStyle=orthogonalEdgeStyle;rounded=0;orthogonalLoop=1;jettySize=auto;html=1;exitX=1;exitY=0.5;exitDx=0;exitDy=0;exitPerimeter=0;entryX=0;entryY=0.5;entryDx=0;entryDy=0;" edge="1" parent="1" source="47eiMUq6ami5p8lEIGS--4" target="47eiMUq6ami5p8lEIGS--7">
          <mxGeometry relative="1" as="geometry" />
        </mxCell>
        <mxCell id="47eiMUq6ami5p8lEIGS--4" value="Barebones HDF5 &lt;br&gt;structure" style="strokeWidth=2;html=1;shape=mxgraph.flowchart.direct_data;whiteSpace=wrap;align=left;" vertex="1" parent="1">
          <mxGeometry x="310" y="200" width="80" height="60" as="geometry" />
        </mxCell>
        <mxCell id="47eiMUq6ami5p8lEIGS--5" value="Optional EDF (TIFF, ...) to HDF5 translation through FabIO" style="rounded=1;whiteSpace=wrap;html=1;absoluteArcSize=1;arcSize=14;strokeWidth=2;align=left;dashed=1;dashPattern=1 1;" vertex="1" parent="1">
          <mxGeometry x="170" y="190" width="100" height="80" as="geometry" />
        </mxCell>
        <mxCell id="47eiMUq6ami5p8lEIGS--6" style="edgeStyle=orthogonalEdgeStyle;rounded=0;orthogonalLoop=1;jettySize=auto;html=1;exitX=1;exitY=0.5;exitDx=0;exitDy=0;entryX=0;entryY=0.5;entryDx=0;entryDy=0;entryPerimeter=0;dashed=1;dashPattern=1 1;" edge="1" parent="1" source="47eiMUq6ami5p8lEIGS--5" target="47eiMUq6ami5p8lEIGS--4">
          <mxGeometry relative="1" as="geometry" />
        </mxCell>
        <mxCell id="47eiMUq6ami5p8lEIGS--7" value="HDF5Translator:&amp;nbsp;&lt;br&gt;&lt;ol&gt;&lt;li&gt;Tree_copy&lt;/li&gt;&lt;li&gt;Data Translation&lt;/li&gt;&lt;li&gt;add attributes&lt;/li&gt;&lt;li&gt;prune&lt;/li&gt;&lt;li&gt;link&lt;/li&gt;&lt;/ol&gt;" style="rounded=1;whiteSpace=wrap;html=1;absoluteArcSize=1;arcSize=14;strokeWidth=2;" vertex="1" parent="1">
          <mxGeometry x="430" y="165" width="140" height="130" as="geometry" />
        </mxCell>
        <mxCell id="47eiMUq6ami5p8lEIGS--11" style="edgeStyle=orthogonalEdgeStyle;rounded=0;orthogonalLoop=1;jettySize=auto;html=1;exitX=1;exitY=0.5;exitDx=0;exitDy=0;exitPerimeter=0;entryX=0.5;entryY=0;entryDx=0;entryDy=0;" edge="1" parent="1" source="47eiMUq6ami5p8lEIGS--8" target="47eiMUq6ami5p8lEIGS--7">
          <mxGeometry relative="1" as="geometry" />
        </mxCell>
        <mxCell id="47eiMUq6ami5p8lEIGS--8" value="Yaml configuration file" style="strokeWidth=2;html=1;shape=mxgraph.flowchart.document2;whiteSpace=wrap;size=0.25;" vertex="1" parent="1">
          <mxGeometry x="370" y="60" width="100" height="60" as="geometry" />
        </mxCell>
        <mxCell id="47eiMUq6ami5p8lEIGS--9" value="Optional Excel to YAML translation" style="rounded=1;whiteSpace=wrap;html=1;absoluteArcSize=1;arcSize=14;strokeWidth=2;dashed=1;dashPattern=1 1;" vertex="1" parent="1">
          <mxGeometry x="240" y="65" width="90" height="50" as="geometry" />
        </mxCell>
        <mxCell id="47eiMUq6ami5p8lEIGS--10" style="edgeStyle=orthogonalEdgeStyle;rounded=0;orthogonalLoop=1;jettySize=auto;html=1;exitX=1;exitY=0.5;exitDx=0;exitDy=0;entryX=0;entryY=0.5;entryDx=0;entryDy=0;entryPerimeter=0;dashed=1;dashPattern=1 1;" edge="1" parent="1" source="47eiMUq6ami5p8lEIGS--9" target="47eiMUq6ami5p8lEIGS--8">
          <mxGeometry relative="1" as="geometry" />
        </mxCell>
        <mxCell id="47eiMUq6ami5p8lEIGS--13" style="edgeStyle=orthogonalEdgeStyle;rounded=0;orthogonalLoop=1;jettySize=auto;html=1;exitX=1;exitY=0.5;exitDx=0;exitDy=0;exitPerimeter=0;entryX=0;entryY=0.5;entryDx=0;entryDy=0;dashed=1;dashPattern=1 1;" edge="1" parent="1" source="47eiMUq6ami5p8lEIGS--12" target="47eiMUq6ami5p8lEIGS--9">
          <mxGeometry relative="1" as="geometry" />
        </mxCell>
        <mxCell id="47eiMUq6ami5p8lEIGS--12" value="Excel configuration file" style="strokeWidth=2;html=1;shape=mxgraph.flowchart.document2;whiteSpace=wrap;size=0.25;dashed=1;dashPattern=1 1;" vertex="1" parent="1">
          <mxGeometry x="100" y="60" width="100" height="60" as="geometry" />
        </mxCell>
        <mxCell id="47eiMUq6ami5p8lEIGS--19" style="edgeStyle=orthogonalEdgeStyle;rounded=0;orthogonalLoop=1;jettySize=auto;html=1;exitX=1;exitY=0.5;exitDx=0;exitDy=0;exitPerimeter=0;entryX=0;entryY=0.5;entryDx=0;entryDy=0;dashed=1;dashPattern=1 1;" edge="1" parent="1" source="47eiMUq6ami5p8lEIGS--15" target="47eiMUq6ami5p8lEIGS--18">
          <mxGeometry relative="1" as="geometry" />
        </mxCell>
        <mxCell id="47eiMUq6ami5p8lEIGS--15" value="Diamond / DAWN-compatible &lt;br&gt;NeXus file" style="strokeWidth=2;html=1;shape=mxgraph.flowchart.direct_data;whiteSpace=wrap;align=left;" vertex="1" parent="1">
          <mxGeometry x="610" y="190" width="100" height="80" as="geometry" />
        </mxCell>
        <mxCell id="47eiMUq6ami5p8lEIGS--16" style="edgeStyle=orthogonalEdgeStyle;rounded=0;orthogonalLoop=1;jettySize=auto;html=1;exitX=1;exitY=0.5;exitDx=0;exitDy=0;entryX=0;entryY=0.5;entryDx=0;entryDy=0;entryPerimeter=0;" edge="1" parent="1" source="47eiMUq6ami5p8lEIGS--7" target="47eiMUq6ami5p8lEIGS--15">
          <mxGeometry relative="1" as="geometry" />
        </mxCell>
        <mxCell id="47eiMUq6ami5p8lEIGS--18" value="Post-translation process(es), e.g.:&lt;br&gt;&lt;ol&gt;&lt;li&gt;Beam center &amp;amp; flux calculation&lt;/li&gt;&lt;li&gt;Transmission calculation&lt;/li&gt;&lt;li&gt;Extra metadata feed-in&lt;/li&gt;&lt;li&gt;Stacking multiple files&lt;/li&gt;&lt;/ol&gt;" style="rounded=1;whiteSpace=wrap;html=1;absoluteArcSize=1;arcSize=14;strokeWidth=2;dashed=1;dashPattern=1 1;" vertex="1" parent="1">
          <mxGeometry x="750" y="165" width="200" height="130" as="geometry" />
        </mxCell>
        <mxCell id="47eiMUq6ami5p8lEIGS--21" style="edgeStyle=orthogonalEdgeStyle;rounded=0;orthogonalLoop=1;jettySize=auto;html=1;exitX=1;exitY=0.5;exitDx=0;exitDy=0;exitPerimeter=0;entryX=0.25;entryY=0;entryDx=0;entryDy=0;dashed=1;dashPattern=1 1;" edge="1" parent="1" source="47eiMUq6ami5p8lEIGS--20" target="47eiMUq6ami5p8lEIGS--18">
          <mxGeometry relative="1" as="geometry" />
        </mxCell>
        <mxCell id="47eiMUq6ami5p8lEIGS--20" value="Optional Auxiliary &lt;br&gt;files" style="strokeWidth=2;html=1;shape=mxgraph.flowchart.direct_data;whiteSpace=wrap;align=left;dashed=1;dashPattern=1 1;" vertex="1" parent="1">
          <mxGeometry x="690" y="80" width="80" height="60" as="geometry" />
        </mxCell>
        <mxCell id="47eiMUq6ami5p8lEIGS--23" style="edgeStyle=orthogonalEdgeStyle;rounded=0;orthogonalLoop=1;jettySize=auto;html=1;exitX=0.5;exitY=1;exitDx=0;exitDy=0;entryX=0.5;entryY=0;entryDx=0;entryDy=0;dashed=1;dashPattern=1 1;" edge="1" parent="1" source="47eiMUq6ami5p8lEIGS--22" target="47eiMUq6ami5p8lEIGS--18">
          <mxGeometry relative="1" as="geometry" />
        </mxCell>
        <mxCell id="47eiMUq6ami5p8lEIGS--22" value="Optional command-line key-value pairs" style="html=1;strokeWidth=2;shape=manualInput;whiteSpace=wrap;rounded=1;size=26;arcSize=11;verticalAlign=bottom;dashed=1;dashPattern=1 1;" vertex="1" parent="1">
          <mxGeometry x="800" y="20" width="100" height="60" as="geometry" />
        </mxCell>
        <mxCell id="47eiMUq6ami5p8lEIGS--24" value="Augmented NeXus file" style="strokeWidth=2;html=1;shape=mxgraph.flowchart.direct_data;whiteSpace=wrap;align=left;dashed=1;dashPattern=1 1;" vertex="1" parent="1">
          <mxGeometry x="990" y="200" width="90" height="60" as="geometry" />
        </mxCell>
        <mxCell id="47eiMUq6ami5p8lEIGS--25" style="edgeStyle=orthogonalEdgeStyle;rounded=0;orthogonalLoop=1;jettySize=auto;html=1;exitX=1;exitY=0.5;exitDx=0;exitDy=0;entryX=0;entryY=0.5;entryDx=0;entryDy=0;entryPerimeter=0;dashed=1;dashPattern=1 1;" edge="1" parent="1" source="47eiMUq6ami5p8lEIGS--18" target="47eiMUq6ami5p8lEIGS--24">
          <mxGeometry relative="1" as="geometry" />
        </mxCell>
      </root>
    </mxGraphModel>
  </diagram>
</mxfile>
